<svg width="512" height="512" viewBox="0 0 512 512" fill="none" xmlns="http://www.w3.org/2000/svg">
  <rect width="512" height="512" rx="112" fill="#0B1638"/>
  <g transform="translate(64 56) scale(0.77)">
    <path d="M427.043 320.839C433.044 322.02 491.137 349.992 496.593 354.019C494.907 362.561 490.996 371.747 486.794 379.358C453.712 439.064 398.439 483.323 332.957 502.541C270.502 520.397 191.172 512.811 134.197 481.159C120.948 474.027 81.8955 446.851 77.5352 432.829C77.5662 431.089 78.8745 429.817 79.9609 428.574C85.0645 422.736 136.917 382.991 140.915 384.049C147.153 385.698 156.517 395.295 162.141 399.264C193.939 421.7 233.045 430.559 271.674 427.754C320.867 424.183 369.324 401.067 399.732 361.591C404.885 354.899 409.943 348.056 414.365 340.851C418.523 334.078 421.804 326.89 427.043 320.839Z" fill="#FDFDFE"/>
    <path d="M20.51 149.983C28.0579 151.216 60.1937 172.579 70.4747 176.293C74.8744 177.883 89.314 186.687 92.2164 190.591C94.8723 194.163 86.2126 214.397 85.9114 219.633C84.7984 229.677 83.5093 238.16 83.5897 248.192C83.4883 277.744 88.0751 300.493 100.188 327.391C103.704 335.2 107.76 342.232 111.045 350.17C110.448 357.37 87.0206 368.765 79.6063 375.05C71.909 379.8 51.8116 394.088 45.4011 396.797C31.4166 393.785 8.19699 320.228 5.1198 304.824C-3.21186 261.913 -1.35422 217.645 10.543 175.584C12.8214 167.647 15.9328 156.84 20.51 149.983Z" fill="#FDFDFE"/>
    <path d="M226.241 1.08545L240.536 0C243.018 12.1275 241.522 28.7551 241.459 41.304C241.212 90.1683 249.643 76.4795 210.433 85.6878C200.694 88.0751 191.225 91.4542 182.175 95.7713C150.721 110.806 140.406 127.772 119.16 150.666C111.655 147.964 92.4841 135.613 84.1541 130.603C74.4299 123.974 58.7596 116.504 50.2598 109.472C44.5453 104.745 70.0732 78.0978 73.8347 74.0961C107.391 38.5005 151.274 14.345 199.292 5.03886C208.338 3.25249 216.987 1.36959 226.241 1.08545Z" fill="#FDFDFE"/>
    <path d="M287.099 0.243652C291.871 0.435112 297.583 1.77493 302.337 2.56336C371.383 14.0156 428.846 55.531 468.051 114.908C461.096 120.84 450.888 127.022 443.027 132.09C431.329 139.484 417.987 147.739 406.653 155.311C399.825 150.125 388.965 135.727 380.836 128.255C359.212 108.376 340.775 94.6435 312.231 86.4606C304.177 84.1518 295.995 82.64 288.137 80.0169C285.377 73.8248 286.105 8.80305 287.099 0.243652Z" fill="#FDFDFE"/>
  </g>
</svg>
